<svg width="159" height="231" viewBox="0 0 159 231" fill="none" xmlns="http://www.w3.org/2000/svg">
<mask id="path-1-inside-1_2358_2231" fill="white">
<path d="M0.242188 188.843V139.548L72.9765 181.232V230.837L0.242188 188.843Z"/>
</mask>
<path d="M0.242188 139.548L78.8037 2.46417L-157.758 -133.107V139.548H0.242188ZM0.242188 188.843H-157.758V280.065L-78.7578 325.675L0.242188 188.843ZM72.9765 230.837L-6.0235 367.669L230.977 504.501V230.837H72.9765ZM72.9765 181.232H230.977V89.6728L151.538 44.1475L72.9765 181.232ZM0.242188 139.548H-157.758V188.843H0.242188H158.242V139.548H0.242188ZM0.242188 188.843L-78.7578 325.675L-6.0235 367.669L72.9765 230.837L151.977 94.0046L79.2422 52.0114L0.242188 188.843ZM72.9765 230.837H230.977V181.232H72.9765H-85.0235V230.837H72.9765ZM72.9765 181.232L151.538 44.1475L78.8037 2.46417L0.242188 139.548L-78.3194 276.633L-5.58504 318.316L72.9765 181.232Z" fill="black" mask="url(#path-1-inside-1_2358_2231)"/>
<mask id="path-3-inside-2_2358_2231" fill="white">
<path d="M72.9759 85.541V181.231L115.988 209.866V43.4083H0L72.9759 85.541Z"/>
</mask>
<path d="M72.9759 181.231H-85.0241V265.856L-14.5812 312.752L72.9759 181.231ZM72.9759 85.541H230.976V-5.68032L151.976 -51.291L72.9759 85.541ZM0 43.4083V-114.592H-589.664L-79 180.24L0 43.4083ZM115.988 43.4083H273.988V-114.592H115.988V43.4083ZM115.988 209.866L28.4311 341.387L273.988 504.861V209.866H115.988ZM72.9759 181.231H230.976V85.541H72.9759H-85.0241V181.231H72.9759ZM72.9759 85.541L151.976 -51.291L79 -93.4237L0 43.4083L-79 180.24L-6.02407 222.373L72.9759 85.541ZM0 43.4083V201.408H115.988V43.4083V-114.592H0V43.4083ZM115.988 43.4083H-42.0117V209.866H115.988H273.988V43.4083H115.988ZM115.988 209.866L203.545 78.345L160.533 49.7104L72.9759 181.231L-14.5812 312.752L28.4311 341.387L115.988 209.866Z" fill="black" mask="url(#path-3-inside-2_2358_2231)"/>
<rect x="126.741" y="10.7531" width="21.5062" height="21.9894" stroke="black" stroke-width="21.5062"/>
</svg>
